<svg width="749" height="696" viewBox="0 0 749 696" fill="none" xmlns="http://www.w3.org/2000/svg">
<path d="M466.779 10.856C489.579 9.44045 511.938 17.5787 528.494 33.3182L713.002 208.733C731.443 226.265 740.722 251.351 738.13 276.663L715.444 498.165C712.685 525.106 696.83 548.958 673.057 561.929L465.004 675.455C444.288 686.759 419.712 688.611 397.536 680.539L151.073 590.834C128.897 582.763 111.261 565.547 102.658 543.571L16.2527 322.872C6.37974 297.654 9.5653 269.191 24.7689 246.78L149.77 62.5176C164.054 41.4609 187.287 28.2089 212.683 26.6321L466.779 10.856Z" stroke="black" stroke-width="20.0587"/>
</svg>
