<svg width="543" height="466" viewBox="0 0 543 466" fill="none" xmlns="http://www.w3.org/2000/svg">
<path d="M350.349 8.08626C367.439 7.02519 384.2 13.1255 396.61 24.9236L534.915 156.413C548.738 169.554 555.693 188.358 553.75 207.332L536.745 373.367C534.677 393.561 522.792 411.44 504.972 421.164L349.019 506.261C333.49 514.734 315.068 516.122 298.445 510.072L113.7 442.83C97.0774 436.78 83.8579 423.875 77.4088 407.403L12.6408 241.97C5.2401 223.067 7.62796 201.731 19.0244 184.932L112.723 46.8111C123.431 31.0272 140.846 21.0938 159.882 19.9118L350.349 8.08626Z" stroke="black" stroke-width="15.0358"/>
</svg>
